<svg width="213" height="251" viewBox="0 0 213 251" fill="none" xmlns="http://www.w3.org/2000/svg">
<g clip-path="url(#clip0)">
<path d="M145.114 136.118C139.063 141.361 131.688 147.244 126.015 150.073C110.925 157.503 85.1697 161.954 60.4735 161.426C59.6415 161.388 58.8095 161.426 58.0153 161.463C44.5515 162.444 34.5293 174.324 34.5293 187.751V216.981H0.0756392C0.0378196 216.491 0 215.963 0 215.435V28.2881C0 23.7244 1.89098 19.3871 5.18128 16.219C10.7786 10.7878 16.8675 5.80934 23.3347 1.28342C28.0243 -1.99788 34.4915 1.35885 34.5293 7.09168V119.561C34.5293 130.498 44.6649 138.457 55.3301 136.118C55.7461 136.005 56.1621 135.93 56.5781 135.854C75.5636 132.083 83.1653 126.802 87.4011 124.238C92.3176 121.296 101.924 119.259 100.108 123.634C98.2931 128.047 87.8171 132.95 84.0351 139.739C84.0351 139.739 109.677 148.527 126.242 139.475C132.331 136.156 136.793 132.837 140.424 130.197C144.32 127.33 148.744 132.95 145.114 136.118Z" fill="white"/>
<path d="M185.619 3.8092C186.299 3.8092 186.98 4.03549 187.585 4.45037C193.372 8.48598 199.045 13.0873 204.377 18.1413C207.478 21.0454 209.256 25.1565 209.256 29.3806V213.208H182.291V125.217C182.291 113.789 172.949 104.511 161.49 104.511C159.939 104.511 158.389 104.7 157.027 105.001C156.535 105.077 156.082 105.19 155.59 105.303C137.361 108.924 129.041 114.053 124.578 116.806L123.67 117.372C122.649 117.976 121.363 118.541 120.039 118.994C120.682 118.466 121.325 117.976 121.93 117.485C125.675 114.543 129.91 111.187 132.255 106.925C133.087 105.454 132.822 103.606 131.612 102.437C130.024 100.852 116.598 97.4957 105.403 97.4957C97.3477 97.4957 90.4267 99.0421 84.905 102.059C78.9674 105.265 74.5803 108.471 71.0631 111.036L70.1932 111.639C78.0597 104.85 84.2621 100.324 88.6114 98.1746C102.189 91.4989 125.712 87.1616 148.48 87.1616C149.766 87.1616 151.089 87.1616 152.451 87.1993C153.321 87.1993 154.266 87.1993 155.174 87.1238C170.302 86.0301 182.177 72.8295 182.177 57.0642V7.09049C182.253 5.05383 183.955 3.8092 185.619 3.8092ZM185.619 0.0375977C181.912 0.0375977 178.471 2.90401 178.471 7.09049V57.0265C178.471 70.4534 168.411 82.3339 154.985 83.3145C154.153 83.39 153.359 83.39 152.526 83.39C151.203 83.3522 149.879 83.3522 148.555 83.3522C125.107 83.3522 101.281 87.7273 86.9851 94.7425C81.1609 97.6089 73.5592 103.719 67.4324 109.037C64.5203 111.602 66.8651 115.675 69.8907 115.675C70.6092 115.675 71.4034 115.449 72.1598 114.883C75.8662 112.205 80.4045 108.773 86.7582 105.341C92.3933 102.248 99.0874 101.23 105.441 101.23C117.77 101.23 128.927 105.039 128.965 105.077C125.183 111.866 114.707 116.769 112.892 121.181C112.135 122.992 113.345 123.708 115.388 123.708C118.262 123.708 122.725 122.313 125.599 120.578C129.835 118.013 137.436 112.733 156.422 108.961C156.838 108.848 157.254 108.773 157.67 108.697C158.956 108.396 160.204 108.283 161.452 108.283C170.604 108.283 178.471 115.637 178.471 125.217V216.98H212.962C213 216.791 213 216.641 213 216.452V29.3806C213 24.1004 210.807 19.0087 206.949 15.388C201.579 10.2963 195.83 5.58185 189.741 1.35766C188.455 0.452474 187.018 0.0375977 185.619 0.0375977Z" fill="white"/>
<path d="M19.0233 226.447V249.341H15.7708V239.233C15.7708 238.705 15.3548 238.29 14.8253 238.29H5.14347C4.61399 238.29 4.19798 238.705 4.19798 239.233V249.341H0.94549V226.447H4.19798V234.971C4.19798 235.499 4.61399 235.914 5.14347 235.914H14.7875C15.3169 235.914 15.733 235.499 15.733 234.971V226.447H19.0233ZM19.9688 225.504H14.8253V234.971H5.14347V225.504H0V250.284H5.14347V239.233H14.7875V250.284H19.9309V225.504H19.9688Z" fill="white"/>
<path d="M42.3959 226.447V228.936H30.1801C29.6507 228.936 29.2346 229.351 29.2346 229.879V235.159C29.2346 235.687 29.6507 236.102 30.1801 236.102H41.2991V238.516H30.1801C29.6507 238.516 29.2346 238.931 29.2346 239.459V245.833C29.2346 246.361 29.6507 246.776 30.1801 246.776H43.001V249.341H26.0578V226.447H42.3959ZM43.3414 225.504H25.1123V250.284H43.9465V245.833H30.1801V239.459H42.2446V235.159H30.1801V229.879H43.3414V225.504Z" fill="white"/>
<path d="M52.2287 226.447V245.833C52.2287 246.361 52.6447 246.776 53.1742 246.776H64.6335V249.341H48.9384V226.447H52.2287ZM53.1742 225.504H47.9929V250.284H65.579V245.833H53.1742V225.504Z" fill="white"/>
<path d="M79.8751 226.447C82.1065 226.447 83.8462 227.013 85.132 228.144C86.3801 229.238 86.9852 230.973 86.9852 233.387C86.9852 235.989 86.3801 237.837 85.132 238.856C83.8462 239.912 81.9552 240.44 79.4969 240.44H74.3156C73.7861 240.44 73.3701 240.855 73.3701 241.383V249.341H70.1176V226.447H79.8751ZM74.3534 238.064H79.0431C80.4802 238.064 81.6148 237.686 82.4468 236.932C83.3167 236.14 83.7327 234.971 83.7327 233.425C83.7327 231.84 83.2789 230.671 82.409 229.955C81.577 229.276 80.4424 228.899 79.0431 228.899H74.3534C73.824 228.899 73.4079 229.313 73.4079 229.841V237.121C73.4079 237.649 73.824 238.064 74.3534 238.064ZM79.8751 225.504H69.21V250.284H74.3534V241.383H79.5347C82.2199 241.383 84.3 240.779 85.775 239.572C87.2121 238.365 87.9685 236.291 87.9685 233.387C87.9685 230.709 87.2499 228.748 85.775 227.465C84.3 226.145 82.3334 225.504 79.8751 225.504ZM74.3534 237.121V229.841H79.0431C80.2155 229.841 81.161 230.105 81.8039 230.671C82.4468 231.237 82.7872 232.142 82.7872 233.425C82.7872 234.707 82.4468 235.65 81.8039 236.253C81.161 236.857 80.2155 237.158 79.0431 237.158H74.3534V237.121Z" fill="white"/>
<path d="M96.6668 225.504H102.529L111.303 250.284H105.668L104.042 245.192H94.9271L93.2252 250.284H87.7792L96.6668 225.504ZM96.3264 240.93H102.68L99.5411 231.162L96.3264 240.93Z" fill="white"/>
<path d="M129.078 226.07C130.818 226.636 132.217 227.692 133.314 229.2C134.184 230.445 134.751 231.765 135.092 233.198C135.394 234.632 135.546 235.989 135.546 237.309C135.546 240.591 134.865 243.382 133.541 245.682C131.726 248.775 128.965 250.321 125.221 250.321H114.518V225.542H125.221C126.771 225.542 128.057 225.731 129.078 226.07ZM119.548 229.804V245.984H124.351C126.809 245.984 128.511 244.777 129.494 242.363C130.024 241.043 130.289 239.459 130.289 237.649C130.289 235.122 129.873 233.198 129.116 231.841C128.322 230.483 126.734 229.804 124.389 229.804H119.548Z" fill="white"/>
<path d="M158.578 248.096C156.687 250.02 154.001 251 150.446 251C146.891 251 144.168 250.02 142.315 248.096C139.781 245.72 138.533 242.326 138.533 237.875C138.533 233.349 139.781 229.917 142.315 227.654C144.206 225.731 146.891 224.75 150.446 224.75C154.001 224.75 156.724 225.731 158.578 227.654C161.074 229.917 162.322 233.349 162.322 237.875C162.322 242.326 161.074 245.72 158.578 248.096ZM155.325 244.325C156.535 242.816 157.14 240.666 157.14 237.875C157.14 235.084 156.535 232.934 155.325 231.426C154.115 229.917 152.489 229.163 150.446 229.163C148.404 229.163 146.74 229.917 145.53 231.426C144.32 232.934 143.677 235.084 143.677 237.875C143.677 240.666 144.282 242.816 145.53 244.325C146.74 245.833 148.404 246.588 150.446 246.588C152.489 246.588 154.115 245.833 155.325 244.325Z" fill="white"/>
<path d="M182.215 226.145C183.123 226.523 183.917 227.126 184.56 227.88C185.089 228.522 185.505 229.2 185.808 229.955C186.11 230.709 186.262 231.577 186.262 232.557C186.262 233.726 185.959 234.896 185.354 236.027C184.749 237.159 183.765 237.951 182.404 238.441C183.539 238.893 184.371 239.535 184.824 240.402C185.316 241.232 185.543 242.552 185.543 244.287V245.946C185.543 247.078 185.581 247.832 185.694 248.247C185.846 248.888 186.148 249.341 186.64 249.643V250.246H180.891C180.74 249.68 180.626 249.265 180.551 248.926C180.4 248.247 180.362 247.53 180.324 246.776L180.286 244.475C180.248 242.891 179.983 241.835 179.454 241.307C178.925 240.779 177.941 240.515 176.504 240.515H171.436V250.246H166.406V225.467H178.282C179.983 225.542 181.307 225.768 182.215 226.145ZM171.474 229.804V236.48H177.071C178.168 236.48 179 236.329 179.567 236.065C180.551 235.612 181.042 234.669 181.042 233.274C181.042 231.765 180.551 230.747 179.605 230.256C179.076 229.955 178.282 229.804 177.185 229.804H171.474Z" fill="white"/>
<path d="M198.326 225.504H204.226L213 250.284H207.365L205.739 245.192H196.586L194.884 250.284H189.476L198.326 225.504ZM197.985 240.93H204.339L201.2 231.199L197.985 240.93Z" fill="white"/>
</g>
<defs>
<clipPath id="clip0">
<rect width="213" height="251" fill="white"/>
</clipPath>
</defs>
</svg>
